<svg xmlns="http://www.w3.org/2000/svg" width="23.08" height="23.08" viewBox="0 0 23.08 23.08">
  <path id="Icon_awesome-save" data-name="Icon awesome-save" d="M22.356,7.3,18.034,2.974a2.473,2.473,0,0,0-1.749-.724H2.473A2.473,2.473,0,0,0,0,4.723V22.857A2.473,2.473,0,0,0,2.473,25.33H20.607a2.473,2.473,0,0,0,2.473-2.473V9.044A2.473,2.473,0,0,0,22.356,7.3ZM11.54,22.033a3.3,3.3,0,1,1,3.3-3.3A3.3,3.3,0,0,1,11.54,22.033ZM16.486,6.345v5.179a.618.618,0,0,1-.618.618H3.915a.618.618,0,0,1-.618-.618V6.165a.618.618,0,0,1,.618-.618H15.688a.618.618,0,0,1,.437.181l.179.179a.618.618,0,0,1,.181.437Z" transform="translate(0 -2.25)" fill="#26b23e"/>
</svg>
