<svg xmlns="http://www.w3.org/2000/svg" width="17.57" height="14.557" viewBox="0 0 17.57 14.557">
  <g id="Icon_feather-camera" data-name="Icon feather-camera" transform="translate(0.5 0.5)">
    <path id="Caminho_5209" data-name="Caminho 5209" d="M18.071,16.551a1.506,1.506,0,0,1-1.506,1.506H3.006A1.506,1.506,0,0,1,1.5,16.551V8.266A1.506,1.506,0,0,1,3.006,6.76H6.019L7.526,4.5h4.519l1.506,2.26h3.013a1.506,1.506,0,0,1,1.506,1.506Z" transform="translate(-1.5 -4.5)" fill="none" stroke="#00757a" stroke-linecap="round" stroke-linejoin="round" stroke-width="1"/>
    <path id="Caminho_5210" data-name="Caminho 5210" d="M18.026,16.513A3.013,3.013,0,1,1,15.013,13.5,3.013,3.013,0,0,1,18.026,16.513Z" transform="translate(-6.728 -8.981)" fill="none" stroke="#00757a" stroke-linecap="round" stroke-linejoin="round" stroke-width="1"/>
  </g>
</svg>
