<svg xmlns="http://www.w3.org/2000/svg" width="17.168" height="22.891" viewBox="0 0 17.168 22.891">
  <path id="Icon_awesome-file-upload" data-name="Icon awesome-file-upload" d="M10.015,6.08V0H1.073A1.07,1.07,0,0,0,0,1.073V21.818a1.07,1.07,0,0,0,1.073,1.073H16.1a1.07,1.07,0,0,0,1.073-1.073V7.153h-6.08A1.076,1.076,0,0,1,10.015,6.08Zm2.914,9.658H10.015v3.577a.715.715,0,0,1-.715.715H7.869a.715.715,0,0,1-.715-.715V15.738H4.239a.715.715,0,0,1-.5-1.223l4.311-4.279a.762.762,0,0,1,1.075,0l4.311,4.279A.715.715,0,0,1,12.929,15.738ZM16.855,4.694,12.478.313A1.072,1.072,0,0,0,11.718,0h-.273V5.723h5.723V5.45A1.07,1.07,0,0,0,16.855,4.694Z"/>
</svg>
