<svg xmlns="http://www.w3.org/2000/svg" width="22.043" height="22.04" viewBox="0 0 22.043 22.04">
  <path id="Icon_awesome-upload" data-name="Icon awesome-upload" d="M12.744,16.534H9.3A1.031,1.031,0,0,1,8.266,15.5V8.268H4.49A.859.859,0,0,1,3.883,6.8L10.432.247a.834.834,0,0,1,1.175,0L18.16,6.8a.859.859,0,0,1-.607,1.468H13.777V15.5A1.031,1.031,0,0,1,12.744,16.534Zm9.3-.344v4.822a1.031,1.031,0,0,1-1.033,1.033H1.033A1.031,1.031,0,0,1,0,21.012V16.19a1.031,1.031,0,0,1,1.033-1.033H6.888V15.5A2.412,2.412,0,0,0,9.3,17.912h3.444A2.412,2.412,0,0,0,15.154,15.5v-.344H21.01A1.031,1.031,0,0,1,22.043,16.19ZM16.7,19.978a.861.861,0,1,0-.861.861A.864.864,0,0,0,16.7,19.978Zm2.755,0a.861.861,0,1,0-.861.861A.864.864,0,0,0,19.46,19.978Z" transform="translate(0 -0.005)" fill="#005356"/>
</svg>
