<svg xmlns="http://www.w3.org/2000/svg" width="17" height="18" viewBox="0 0 17 18">
  <g id="Icons_scales" data-name="Icons/ scales" transform="translate(1 1)">
    <g id="Icons_scales-2" data-name="Icons/ scales">
      <circle id="Oval" cx="4" cy="4" r="4" transform="translate(4)" fill="none" stroke="#81c341" stroke-linecap="round" stroke-linejoin="round" stroke-miterlimit="10" stroke-width="2"/>
      <path id="Path" d="M11.25,0h2.5A1.244,1.244,0,0,1,15,1.231v9.846a1.244,1.244,0,0,1-1.25,1.231H1.25A1.244,1.244,0,0,1,0,11.077V1.231A1.244,1.244,0,0,1,1.25,0h2.5" transform="translate(0 3.692)" fill="none" stroke="#81c341" stroke-linecap="round" stroke-linejoin="round" stroke-miterlimit="10" stroke-width="2"/>
      <path id="Path-2" data-name="Path" d="M.75,8.615V0" transform="translate(6.75 7.385)" fill="none" stroke="#81c341" stroke-linecap="round" stroke-linejoin="round" stroke-miterlimit="10" stroke-width="2"/>
      <path id="Path-3" data-name="Path" d="M1.063,1.723a.611.611,0,0,1-.875,0,.589.589,0,0,1,0-.862A11.319,11.319,0,0,1,1.938,0,11,11,0,0,1,1.063,1.723Z" transform="translate(6.875 2.4)" fill="none" stroke="#81c341" stroke-linecap="round" stroke-linejoin="round" stroke-miterlimit="10" stroke-width="2"/>
    </g>
  </g>
</svg>
