<svg xmlns="http://www.w3.org/2000/svg" width="15.264" height="15.264" viewBox="0 0 15.264 15.264">
  <g id="Icon_ionic-ios-close-circle-outline" data-name="Icon ionic-ios-close-circle-outline" transform="translate(-3.375 -3.375)">
    <path id="Caminho_5194" data-name="Caminho 5194" d="M18.066,17.234,16.132,15.3l1.934-1.934a.586.586,0,1,0-.829-.829L15.3,14.471l-1.934-1.934a.586.586,0,1,0-.829.829L14.474,15.3,12.54,17.234a.567.567,0,0,0,0,.829.582.582,0,0,0,.829,0L15.3,16.13l1.934,1.934a.589.589,0,0,0,.829,0A.582.582,0,0,0,18.066,17.234Z" transform="translate(-4.296 -4.294)" fill="#c51818"/>
    <path id="Caminho_5195" data-name="Caminho 5195" d="M11.007,4.4A6.6,6.6,0,1,1,6.336,6.336,6.561,6.561,0,0,1,11.007,4.4m0-1.027a7.632,7.632,0,1,0,7.632,7.632,7.631,7.631,0,0,0-7.632-7.632Z" fill="#c51818"/>
  </g>
</svg>
