<svg xmlns="http://www.w3.org/2000/svg" width="19" height="20.264" viewBox="0 0 19 20.264">
  <g id="icon_calendar" transform="translate(0 1)">
    <rect id="Retângulo_557" data-name="Retângulo 557" width="18" height="18" transform="translate(0 0.146)" fill="none"/>
    <g id="Icons_microscope" data-name="Icons/ microscope" transform="translate(1)">
      <g id="Icons_microscope-2" data-name="Icons/ microscope">
        <circle id="Oval" cx="2.288" cy="2.288" r="2.288" transform="translate(9.154 4.119)" fill="none" stroke="#81c341" stroke-linecap="round" stroke-linejoin="round" stroke-miterlimit="10" stroke-width="2"/>
        <path id="Path" d="M5.623,6.669,4.054,8.3a1.264,1.264,0,0,1-1.831,0L.392,6.473a1.264,1.264,0,0,1,0-1.831L5.035,0,8.5,3.465" transform="translate(3.792 0.85)" fill="none" stroke="#81c341" stroke-linecap="round" stroke-linejoin="round" stroke-miterlimit="10" stroke-width="2"/>
        <path id="Path-2" data-name="Path" d="M13.6,0a6.55,6.55,0,0,1-3.138,12.292H0V10.985A1.312,1.312,0,0,1,1.308,9.677H7.846l2.615,2.615" transform="translate(0 5.558)" fill="none" stroke="#81c341" stroke-linecap="round" stroke-linejoin="round" stroke-miterlimit="10" stroke-width="2"/>
        <path id="Path-3" data-name="Path" d="M5.1,0A3.935,3.935,0,0,1,6.669,3.2,3.964,3.964,0,0,1,2.615,7.127H0" transform="translate(7.846 8.108)" fill="none" stroke="#81c341" stroke-linecap="round" stroke-linejoin="round" stroke-miterlimit="10" stroke-width="2"/>
        <path id="Path-4" data-name="Path" d="M3.465,1.9,2.027,3.269a.632.632,0,0,1-.915,0L.2,2.354a.632.632,0,0,1,0-.915L1.635,0" transform="translate(2.55 7.258)" fill="none" stroke="#81c341" stroke-linecap="round" stroke-linejoin="round" stroke-miterlimit="10" stroke-width="2"/>
        <path id="Path-5" data-name="Path" d="M0,1.308,1.112.2a.632.632,0,0,1,.915,0L3.4,1.569a.632.632,0,0,1,0,.915L2.288,3.6" transform="translate(9.285 0)" fill="none" stroke="#81c341" stroke-linecap="round" stroke-linejoin="round" stroke-miterlimit="10" stroke-width="2"/>
      </g>
    </g>
  </g>
</svg>
