<svg xmlns="http://www.w3.org/2000/svg" width="25.305" height="24.843" viewBox="0 0 25.305 24.843">
  <path id="Icon_simple-microsoftexcel" data-name="Icon simple-microsoftexcel" d="M24.834,3.368H16.357V4.937h2.5V7.419h-2.5V8.21h2.5V10.7h-2.5v.813h2.5v2.35h-2.5V14.8h2.5v2.355h-2.5V18.1h2.5v2.369h-2.5v1.728h8.477c.134-.04.246-.2.335-.472a2.312,2.312,0,0,0,.136-.671V3.655c0-.135-.046-.216-.136-.245A1.16,1.16,0,0,0,24.834,3.368Zm-1.1,17.1H19.667V18.1h4.067v2.367Zm0-3.309H19.667V14.8h4.067Zm0-3.3H19.667v-2.34h4.067v2.34Zm0-3.163H19.667V8.212h4.067V10.7h0Zm0-3.289H19.667V4.938h4.067V7.406ZM0,2.977V22.59l14.93,2.582V.329L0,2.986ZM8.849,17.813q-.085-.231-.8-1.964c-.473-1.156-.759-1.828-.842-2.02H7.181L5.58,17.64,3.439,17.5l2.539-4.745L3.653,8.007l2.183-.115L7.278,11.6h.028L8.936,7.723l2.255-.142L8.506,12.715l2.768,5.238-2.424-.142Z" transform="translate(0 -0.328)" fill="#004346"/>
</svg>
