<svg xmlns="http://www.w3.org/2000/svg" width="34.841" height="34.841" viewBox="0 0 34.841 34.841">
  <path id="Icon_ionic-ios-close-circle" data-name="Icon ionic-ios-close-circle" d="M20.8,3.375A17.42,17.42,0,1,0,38.216,20.8,17.418,17.418,0,0,0,20.8,3.375ZM25.209,27.1,20.8,22.688,16.382,27.1a1.338,1.338,0,1,1-1.893-1.893L18.9,20.8l-4.414-4.414a1.338,1.338,0,1,1,1.893-1.893L20.8,18.9l4.414-4.414A1.338,1.338,0,1,1,27.1,16.382L22.688,20.8,27.1,25.209a1.345,1.345,0,0,1,0,1.893A1.33,1.33,0,0,1,25.209,27.1Z" transform="translate(-3.375 -3.375)" fill="#fff"/>
</svg>
