<svg xmlns="http://www.w3.org/2000/svg" width="17.438" height="17.438" viewBox="0 0 17.438 17.438">
  <path id="Icon_awesome-info-circle" data-name="Icon awesome-info-circle" d="M9.281.563A8.719,8.719,0,1,0,18,9.281,8.72,8.72,0,0,0,9.281.563Zm0,3.867A1.477,1.477,0,1,1,7.8,5.906,1.477,1.477,0,0,1,9.281,4.43Zm1.969,8.93a.422.422,0,0,1-.422.422H7.734a.422.422,0,0,1-.422-.422v-.844a.422.422,0,0,1,.422-.422h.422V9.844H7.734a.422.422,0,0,1-.422-.422V8.578a.422.422,0,0,1,.422-.422h2.25a.422.422,0,0,1,.422.422v3.516h.422a.422.422,0,0,1,.422.422Z" transform="translate(-0.563 -0.563)" fill="#00757a" opacity="0.52"/>
</svg>
