<svg id="address" xmlns="http://www.w3.org/2000/svg" width="19.762" height="16.889" viewBox="0 0 19.762 16.889">
  <path id="Caminho_5038" data-name="Caminho 5038" d="M125.281,13.421l5.185,2.881V4.076L125.281,1.2Zm0,0" transform="translate(-119.444 -1.143)" fill="#81c341"/>
  <path id="Caminho_5039" data-name="Caminho 5039" d="M252.948,26.271a3.268,3.268,0,0,1,.944-2.09,3.055,3.055,0,0,1,1.852-.888v-9.3l-5.185,2.3V28.551l2.536-1.127A3.067,3.067,0,0,1,252.948,26.271Zm0,0" transform="translate(-238.884 -13.34)" fill="#81c341"/>
  <path id="Caminho_5040" data-name="Caminho 5040" d="M0,14.633l5.185-2.3V.07L0,2.375Zm0,0" transform="translate(0 -0.07)" fill="#81c341"/>
  <path id="Caminho_5041" data-name="Caminho 5041" d="M347.158,253.6a1.119,1.119,0,1,0-1.118,1.156A1.138,1.138,0,0,0,347.158,253.6Zm0,0" transform="translate(-328.851 -240.69)" fill="#81c341"/>
  <path id="Caminho_5042" data-name="Caminho 5042" d="M318.841,227.771a2.708,2.708,0,0,0-.782-1.733,2.522,2.522,0,0,0-3.572,0,2.71,2.71,0,0,0-.782,1.733,2.534,2.534,0,0,0,.154,1.043,2.758,2.758,0,0,0,.593.938l1.821,1.939,1.821-1.939a2.758,2.758,0,0,0,.593-.938A2.532,2.532,0,0,0,318.841,227.771Zm-2.568,1.662a1.715,1.715,0,1,1,1.677-1.715A1.7,1.7,0,0,1,316.273,229.433Zm0,0" transform="translate(-299.084 -214.803)" fill="#81c341"/>
</svg>
