<svg xmlns="http://www.w3.org/2000/svg" width="179.563" height="179.563" viewBox="0 0 179.563 179.563">
  <g id="Graphics_Check-big" data-name="Graphics/Check-big" transform="translate(0.5 0.5)">
    <circle id="Oval_Copy_2" data-name="Oval Copy 2" cx="89.281" cy="89.281" r="89.281" fill="none" stroke="rgba(1,86,88,0.11)" stroke-miterlimit="10" stroke-width="1"/>
    <circle id="Oval_Copy" data-name="Oval Copy" cx="71.425" cy="71.425" r="71.425" transform="translate(17.856 17.856)" fill="none" stroke="rgba(3,87,89,0.21)" stroke-miterlimit="10" stroke-width="1"/>
    <circle id="Oval" cx="53.569" cy="53.569" r="53.569" transform="translate(35.713 35.713)" fill="none" stroke="#045a5b" stroke-miterlimit="10" stroke-width="1"/>
    <path id="Fill_1" data-name="Fill 1" d="M48.485,3.611a2.116,2.116,0,0,1,0,2.991L18.569,36.519a2.115,2.115,0,0,1-2.992,0L.619,21.561a2.116,2.116,0,0,1,0-2.992l2.992-2.992a2.115,2.115,0,0,1,2.991,0L17.073,26.049,42.5.62a2.115,2.115,0,0,1,2.992,0Z" transform="translate(64.729 71.425)" fill="#035759"/>
  </g>
</svg>
