<svg xmlns="http://www.w3.org/2000/svg" width="19.432" height="15.183" viewBox="0 0 19.432 15.183">
  <path id="Icon_awesome-exchange-alt" data-name="Icon awesome-exchange-alt" d="M0,8.187V7.58a.911.911,0,0,1,.911-.911H14.574V4.848A.912.912,0,0,1,16.129,4.2L19.165,7.24a.911.911,0,0,1,0,1.288l-3.036,3.036a.912.912,0,0,1-1.555-.644V9.1H.911A.911.911,0,0,1,0,8.187Zm18.521,5.769H4.858V12.135A.912.912,0,0,0,3.3,11.49L.267,14.527a.911.911,0,0,0,0,1.288L3.3,18.851a.911.911,0,0,0,1.555-.644V16.385H18.521a.911.911,0,0,0,.911-.911v-.607A.911.911,0,0,0,18.521,13.956Z" transform="translate(0 -3.936)" fill="#004346"/>
</svg>
