<svg xmlns="http://www.w3.org/2000/svg" width="15.021" height="12.472" viewBox="0 0 15.021 12.472">
  <path id="Caminho_5196" data-name="Caminho 5196" d="M15.521,14.7a1.275,1.275,0,0,1-1.275,1.275H2.775A1.275,1.275,0,0,1,1.5,14.7V7.687A1.275,1.275,0,0,1,2.775,6.412H5.324L6.6,4.5h3.824L11.7,6.412h2.549a1.275,1.275,0,0,1,1.275,1.275Z" transform="translate(-1 -4)" fill="none" stroke="#000" stroke-linecap="round" stroke-linejoin="round" stroke-width="1"/>
  <path id="Caminho_5197" data-name="Caminho 5197" d="M17.1,16.049A2.549,2.549,0,1,1,14.549,13.5,2.549,2.549,0,0,1,17.1,16.049Z" transform="translate(-7.039 -9.176)" fill="none" stroke="#000" stroke-linecap="round" stroke-linejoin="round" stroke-width="1"/>
</svg>
