<svg xmlns="http://www.w3.org/2000/svg" width="16.263" height="22.133" viewBox="0 0 16.263 22.133">
  <g id="Icons_nurse" data-name="Icons/ nurse" transform="translate(1.133 1)">
    <path id="Path" d="M7.778,2.692a2.722,2.722,0,0,0-5.444,0A1.19,1.19,0,0,0,1.167,1.538,1.19,1.19,0,0,0,0,2.692V6.923a3.111,3.111,0,0,0,6.222,0V4.615H7.778Z" transform="translate(3.889)" fill="none" stroke="#81c341" stroke-linecap="round" stroke-linejoin="round" stroke-miterlimit="10" stroke-width="2"/>
    <path id="Path-2" data-name="Path" d="M5.444,0V.769A3.06,3.06,0,0,1,3.733,3.538l-1.556.769A3.185,3.185,0,0,0,.544,6.615L0,10.385" transform="translate(0 9.615)" fill="none" stroke="#81c341" stroke-linecap="round" stroke-linejoin="round" stroke-miterlimit="10" stroke-width="2"/>
    <path id="Path-3" data-name="Path" d="M0,.5H2.333" transform="translate(8.556 16.423)" fill="none" stroke="#81c341" stroke-linecap="round" stroke-linejoin="round" stroke-miterlimit="10" stroke-width="2"/>
    <path id="Path-4" data-name="Path" d="M8.944,8.231,8.4,4.385A3.185,3.185,0,0,0,6.767,2.077L3.5.462l-1.556.846L0,0" transform="translate(5.056 11.769)" fill="none" stroke="#81c341" stroke-linecap="round" stroke-linejoin="round" stroke-miterlimit="10" stroke-width="2"/>
  </g>
</svg>
