<svg xmlns="http://www.w3.org/2000/svg" width="16.867" height="16.867" viewBox="0 0 16.867 16.867">
  <path id="Caminho_5218" data-name="Caminho 5218" d="M15.087,13.5h7.14a1.587,1.587,0,0,1,1.587,1.587v7.14a1.587,1.587,0,0,1-1.587,1.587h-7.14A1.587,1.587,0,0,1,13.5,22.227v-7.14A1.587,1.587,0,0,1,15.087,13.5Z" transform="translate(-7.446 -7.446)" fill="none" stroke="#c5c5c5" stroke-linecap="round" stroke-linejoin="round" stroke-width="1"/>
  <path id="Caminho_5219" data-name="Caminho 5219" d="M5.38,13.314H4.587A1.587,1.587,0,0,1,3,11.727V4.587A1.587,1.587,0,0,1,4.587,3h7.14a1.587,1.587,0,0,1,1.587,1.587V5.38" transform="translate(-2.5 -2.5)" fill="none" stroke="#c5c5c5" stroke-linecap="round" stroke-linejoin="round" stroke-width="1"/>
</svg>
